PathFileType	4	(X/Y/Z)	C:/Users/opensim2020/Desktop/walking_exp_matlab/subject06_walking23_straight_02.trc	
DataRate	CameraRate	NumFrames	NumMarkers	Units	OrigDataRate	OrigDataStartFrame	OrigNumFrames	
100.00	100.00	4	45	mm	100.00	1334	114	
Frame#	Time	LFHD			RFHD			LBHD			RBHD			C7			T10			CLAV			STRN			RBAK			LSHO			LUPA			LELB			LFRM			LWRA			LWRB			LFIN			RSHO			RUPA			RELB			RFRM			RWRA			RWRB			RFIN			LASI			RASI			LPSI			RPSI			LTHI			LKNE			LTIB			LANK			LHEE			LTOE			RTHI			RKNE			RTIB			RANK			RHEE			RTOE			*39			*40			*41			*42			*43			*44			
		X1	Y1	Z1	X2	Y2	Z2	X3	Y3	Z3	X4	Y4	Z4	X5	Y5	Z5	X6	Y6	Z6	X7	Y7	Z7	X8	Y8	Z8	X9	Y9	Z9	X10	Y10	Z10	X11	Y11	Z11	X12	Y12	Z12	X13	Y13	Z13	X14	Y14	Z14	X15	Y15	Z15	X16	Y16	Z16	X17	Y17	Z17	X18	Y18	Z18	X19	Y19	Z19	X20	Y20	Z20	X21	Y21	Z21	X22	Y22	Z22	X23	Y23	Z23	X24	Y24	Z24	X25	Y25	Z25	X26	Y26	Z26	X27	Y27	Z27	X28	Y28	Z28	X29	Y29	Z29	X30	Y30	Z30	X31	Y31	Z31	X32	Y32	Z32	X33	Y33	Z33	X34	Y34	Z34	X35	Y35	Z35	X36	Y36	Z36	X37	Y37	Z37	X38	Y38	Z38	X39	Y39	Z39	X40	Y40	Z40	X41	Y41	Z41	X42	Y42	Z42	X43	Y43	Z43	X44	Y44	Z44	X45	Y45	Z45	

58	0.570	-871.08356	-6.93883	1650.31812	-1002.62604	-22.82724	1649.34668	-891.78552	128.22632	1606.35815	-1019.71741	110.47556	1609.71191	-946.21863	129.94014	1447.44849	-960.99402	165.50899	1118.31470	-952.11060	18.64824	1372.22009	-950.19409	-23.29297	1202.51172	-1023.02582	207.07881	1279.27795	-788.50763	68.74435	1400.71875	-712.15479	50.84134	1201.47656	-696.16040	39.33886	1089.23279	-682.69293	-36.97696	959.22876	-737.22284	-132.19937	879.63580	-694.08386	-84.99168	850.05853	-701.37793	-155.43141	794.48309	-1110.67529	74.13557	1404.57874	-1198.99841	136.23911	1214.21936	-1212.24817	141.12894	1091.55115	-1229.16968	133.60284	971.41223	-1194.77185	81.04992	829.98297	-1237.48718	134.65556	833.43457	-1235.39343	102.78470	754.49945	-852.71838	-14.43748	965.63800	-1073.34155	-14.47066	972.53809	-886.10242	144.81647	985.57318	-1052.38074	136.05150	983.64532	-805.53363	55.44360	643.72711	-833.86346	59.23204	479.82382	-846.68921	143.40173	234.14240	-897.30188	184.47874	69.34849	-942.41223	227.73595	60.18515	-899.11639	45.77085	34.01119	-1138.70837	-55.62945	646.95593	-1116.52197	-109.07153	532.88806	-1106.96948	-37.53263	278.39532	-1059.33545	8.12340	99.15240	-1009.66229	46.32407	79.86562	-1073.45081	-132.55679	43.53697	-938.96930	82.17404	1700.29919															 
59	0.580	-871.28845	-20.47599	1648.84375	-1002.72345	-36.26523	1647.95313	-891.89069	114.72762	1604.70117	-1019.85974	96.99809	1608.09521	-946.29901	116.09402	1445.95752	-961.53271	151.99971	1116.98645	-952.17297	4.99864	1370.60437	-949.86371	-36.79095	1200.70215	-1023.04449	193.45351	1277.90344	-788.63519	55.12220	1399.32056	-711.93774	35.57372	1200.49780	-695.75989	22.58032	1088.51880	-682.67914	-58.55722	961.35150	-737.98114	-157.16669	886.52826	-695.44214	-110.63138	854.31281	-703.06006	-183.86131	802.09821	-1110.84924	60.41773	1402.92212	-1198.59106	124.64497	1213.15222	-1211.73474	130.96873	1090.46167	-1228.70642	125.71726	970.14972	-1194.76721	75.82927	827.51086	-1237.16357	129.64455	832.18048	-1234.96826	99.58876	752.42181	-852.10913	-27.14189	963.74347	-1072.85107	-28.35680	970.82941	-886.74945	131.98610	984.04865	-1052.98914	122.28435	982.11932	-805.64014	46.41383	642.66205	-834.01410	53.26733	478.56973	-847.13177	140.78500	234.08992	-897.92285	183.90643	69.73522	-943.29449	227.12805	60.89778	-899.10052	45.46441	33.97564	-1138.95093	-70.01015	645.84955	-1116.63416	-123.93790	532.07629	-1107.36975	-65.66990	273.30252	-1059.71936	-32.23003	91.24034	-1009.86688	4.25953	69.83416	-1074.70300	-176.49089	43.81547	-939.04938	68.88998	1698.71753															 
60	0.590	-871.51013	-33.95413	1647.30981	-1002.88611	-49.76127	1646.32813	-891.95117	101.31718	1602.94324	-1020.02100	83.55009	1606.20581	-946.60944	102.46725	1444.34973	-962.14276	138.43759	1115.38708	-952.24939	-8.84460	1368.84753	-949.57983	-50.46091	1198.73315	-1023.13983	179.80139	1276.26660	-788.78949	41.52940	1397.75415	-711.81207	20.35497	1199.23340	-695.68787	5.69061	1087.64636	-683.23419	-79.66288	963.32892	-738.96497	-181.31389	893.31659	-697.39801	-135.95602	858.84570	-704.71954	-211.48767	809.86316	-1111.03479	46.51634	1401.07849	-1198.30542	112.86351	1211.89514	-1211.37500	120.63212	1089.27209	-1228.37415	117.58248	968.81152	-1194.97681	70.12086	825.25421	-1237.02905	124.38837	830.98761	-1234.80371	95.84882	750.52673	-851.62598	-40.03053	961.64075	-1072.55298	-42.40992	968.79358	-887.37115	119.02011	982.37469	-1053.64624	108.44162	980.31366	-806.02173	37.58966	641.55487	-834.17596	47.19931	477.33572	-847.59570	138.25217	233.99355	-898.67444	183.32286	70.21453	-944.42090	226.97588	62.04643	-899.10431	45.08881	33.71923	-1139.27576	-83.61915	644.00940	-1116.19421	-137.99855	530.39136	-1107.69617	-93.48103	268.55753	-1060.59778	-72.83071	84.58363	-1010.58240	-38.37460	60.87673	-1076.03015	-219.68141	45.19883	-939.26160	55.54601	1696.91785															 
61	0.600	-871.70935	-47.44003	1645.51160	-1003.20355	-63.21919	1644.51660	-892.23175	87.76878	1600.87659	-1020.27094	69.98770	1604.08850	-946.83209	88.63967	1442.35193	-962.81250	124.74403	1113.47876	-952.37573	-22.76362	1366.86816	-949.37036	-64.15644	1196.54358	-1023.30145	166.06999	1274.42102	-788.98761	27.98120	1395.94580	-711.82733	5.26098	1197.77869	-695.57355	-11.01671	1086.41809	-683.88843	-100.42787	965.41333	-739.97443	-204.88457	900.05322	-698.59930	-160.91815	863.33282	-706.37292	-238.54729	817.71008	-1111.24805	32.49866	1399.01111	-1198.26807	100.93571	1210.58032	-1211.09290	110.20281	1087.93494	-1228.14941	109.27754	967.42133	-1195.26843	64.27979	823.09192	-1236.87683	118.53168	829.67590	-1234.80432	91.87914	748.65759	-851.40546	-53.33374	959.47601	-1072.38940	-56.33587	966.41321	-888.03680	105.89555	980.56519	-1054.55994	94.52545	978.11816	-806.32062	28.57197	640.34937	-834.27411	40.83598	476.07379	-848.08942	135.57877	233.97467	-899.43140	182.73462	70.72461	-945.36035	226.29053	62.93514	-899.07208	44.82696	33.63919	-1139.46887	-96.43708	641.33807	-1116.57532	-151.05736	528.01074	-1108.08374	-120.94823	264.22354	-1061.55896	-113.49255	78.97589	-1011.19672	-80.48542	53.61047	-1077.38513	-262.42456	47.38477	-939.50281	42.12186	1694.93066															 
